HIERARCHY
ROOT SpineBase
{
  OFFSET 0.000000 0.000000 0.000000
  CHANNELS 6 Xposition Yposition Zposition Zrotation Xrotation Yrotation
  JOINT SpineMid
  {
    OFFSET -0.000000 34.118430 -0.000000
    CHANNELS 3 Zrotation Xrotation Yrotation
    JOINT SpineShoulder
    {
      OFFSET 0.361559 25.419160 -0.783508
      CHANNELS 3 Zrotation Xrotation Yrotation
      JOINT Neck
      {
        OFFSET 0.187319 8.382740 -0.560140
        CHANNELS 3 Zrotation Xrotation Yrotation
        JOINT Head
        {
          OFFSET -10.483659 -2.326691 6.930397
          CHANNELS 3 Zrotation Xrotation Yrotation
          End Site
          {
            OFFSET 0 0 0
          }
        }
      }
      JOINT ShoulderLeft
      {
        OFFSET -1.839607 -4.784852 -12.043788
        CHANNELS 3 Zrotation Xrotation Yrotation
        JOINT ElbowLeft
        {
          OFFSET 6.928661 -24.550671 -5.481034
          CHANNELS 3 Zrotation Xrotation Yrotation
          JOINT WristLeft
          {
            OFFSET 6.646225 -24.029289 -0.037277
            CHANNELS 3 Zrotation Xrotation Yrotation
            JOINT HandLeft
            {
              OFFSET 0.208401 -6.054663 1.959017
              CHANNELS 3 Zrotation Xrotation Yrotation
              JOINT HandTipLeft
              {
                OFFSET 0.949287 -7.421982 1.148799
                CHANNELS 3 Zrotation Xrotation Yrotation
                End Site
                {
                  OFFSET 0 0 0
                }
              }
              JOINT ThumbLeft
              {
                OFFSET 0.503923 -1.477329 -3.143244
                CHANNELS 3 Zrotation Xrotation Yrotation
                End Site
                {
                  OFFSET 0 0 0
                }
              }
            }
          }
        }
      }
      JOINT ShoulderRight
      {
        OFFSET 2.243103 -10.045828 -15.297314
        CHANNELS 3 Zrotation Xrotation Yrotation
        JOINT ElbowRight
        {
          OFFSET 4.301041 -21.187909 0.436949
          CHANNELS 3 Zrotation Xrotation Yrotation
          JOINT WristRight
          {
            OFFSET 4.757481 -15.755201 8.237990
            CHANNELS 3 Zrotation Xrotation Yrotation
            JOINT HandRight
            {
              OFFSET -4.483517 -5.569524 -3.313625
              CHANNELS 3 Zrotation Xrotation Yrotation
              JOINT HandTipRight
              {
                OFFSET 1.010837 -0.432798 -1.383484
                CHANNELS 3 Zrotation Xrotation Yrotation
                End Site
                {
                  OFFSET 0 0 0
                }
              }
              JOINT ThumbRight
              {
                OFFSET 3.105882 5.444102 -0.654195
                CHANNELS 3 Zrotation Xrotation Yrotation
                End Site
                {
                  OFFSET 0 0 0
                }
              }
            }
          }
        }
      }
    }
  }
  JOINT HipLeft
  {
    OFFSET -2.051578 1.959220 -8.989722
    CHANNELS 3 Zrotation Xrotation Yrotation
    JOINT KneeLeft
    {
      OFFSET 2.339555 -28.817524 5.271100
      CHANNELS 3 Zrotation Xrotation Yrotation
      JOINT AnkleLeft
      {
        OFFSET -5.599769 -33.664173 3.289856
        CHANNELS 3 Zrotation Xrotation Yrotation
        JOINT FootLeft
        {
          OFFSET 4.100008 -6.484170 -1.093289
          CHANNELS 3 Zrotation Xrotation Yrotation
          End Site
          {
            OFFSET 0 0 0
          }
        }
      }
    }
  }
  JOINT HipRight
  {
    OFFSET 2.147129 -0.824072 2.330719
    CHANNELS 3 Zrotation Xrotation Yrotation
    JOINT KneeRight
    {
      OFFSET -14.121431 -27.337921 15.019237
      CHANNELS 3 Zrotation Xrotation Yrotation
      JOINT AnkleRight
      {
        OFFSET -3.270119 -30.978164 0.686592
        CHANNELS 3 Zrotation Xrotation Yrotation
        JOINT FootRight
        {
          OFFSET -5.443516 -3.690759 -10.437810
          CHANNELS 3 Zrotation Xrotation Yrotation
          End Site
          {
            OFFSET 0 0 0
          }
        }
      }
    }
  }
}
MOTION
Frames: 15
Frame Time: 0.033333
16.489642 65.783460 339.842746 -6.918084 4.020655 -48.260063 -0.026549 0.791780 48.295792 0.433251 0.119274 -0.216236 24.867454 -64.635214 115.042435 0.000000 0.000000 0.000000 -22.171696 8.508677 12.434032 81.929262 -33.258548 14.281125 1.997146 -17.794521 27.031237 18.350685 11.383767 -20.489584 0.000000 0.000000 0.000000 0.000000 0.000000 0.000000 4.921551 0.625214 1.759316 2.451257 -2.077318 0.884211 134.174308 -29.791914 57.659277 -86.526340 49.473736 -45.789907 0.000000 0.000000 0.000000 0.000000 0.000000 0.000000 -11.487338 0.288515 47.175061 5.071759 -11.074635 0.067056 9.994002 1.262294 2.891409 0.000000 0.000000 0.000000 27.842374 24.768699 61.950593 -24.600119 -7.990459 -14.780804 7.352363 -19.550094 -60.659691 0.000000 0.000000 0.000000
19.324072 65.830690 344.306291 -7.665803 2.774809 -45.892331 0.155318 0.781907 45.860830 0.254804 0.191065 -0.247173 25.241136 -61.862460 114.755850 0.000000 0.000000 0.000000 -23.901087 9.426963 13.766219 81.301482 -29.930448 12.512027 1.186843 -20.711528 26.024657 15.204641 15.210706 -19.453410 0.000000 0.000000 0.000000 0.000000 0.000000 0.000000 8.875357 1.591943 1.793530 -1.613964 1.624295 1.186101 128.024690 -24.481669 78.901227 -85.267874 66.852359 -46.954905 0.000000 0.000000 0.000000 0.000000 0.000000 0.000000 -17.745463 5.131676 46.339548 5.440351 -16.226193 -0.766694 6.144874 3.620766 6.697379 0.000000 0.000000 0.000000 26.646769 27.481623 57.584765 -26.240367 -10.789019 -14.089408 5.340676 -41.462905 -67.094411 0.000000 0.000000 0.000000
22.098583 65.849004 348.707762 -8.482835 1.497248 -45.130611 0.112104 0.844790 45.018408 0.329290 0.169045 -0.262571 25.549255 -60.800665 114.423382 0.000000 0.000000 0.000000 -26.039736 10.285624 15.291364 82.298026 -27.756483 11.756321 -1.300100 -21.951016 24.187504 13.755119 13.015000 -16.769639 0.000000 0.000000 0.000000 0.000000 0.000000 0.000000 11.867051 2.588373 1.696819 -4.617586 4.419407 1.468847 121.476377 -24.942661 90.686742 -43.081694 77.360875 -86.015245 0.000000 0.000000 0.000000 0.000000 0.000000 0.000000 -23.602685 9.293213 47.532970 5.926580 -20.989415 -1.536889 3.295183 5.574594 10.063846 0.000000 0.000000 0.000000 24.849678 31.656883 54.630397 -28.299851 -14.174388 -13.509501 5.676551 -50.273273 -65.199315 0.000000 0.000000 0.000000
24.505880 65.718012 352.685188 -9.414716 0.510903 -39.892310 0.178572 0.884611 39.698427 0.472382 0.133897 -0.279847 25.795729 -60.284772 113.867141 0.000000 0.000000 0.000000 -27.427948 10.977912 16.564212 82.637139 -26.173022 11.141743 -3.305071 -23.203633 22.509900 12.766696 11.239534 -14.788841 0.000000 0.000000 0.000000 0.000000 0.000000 0.000000 13.895583 3.465882 1.571654 -6.365643 6.073369 1.649284 116.674768 -27.646939 94.410932 -0.336657 72.451702 -126.566244 0.000000 0.000000 0.000000 0.000000 0.000000 0.000000 -28.915662 16.394271 45.828116 6.034606 -27.041251 -2.690104 0.892602 7.154034 13.123585 0.000000 0.000000 0.000000 26.719453 32.464467 47.336839 -30.624072 -14.863946 -13.461850 10.913704 -52.591005 -56.753706 0.000000 0.000000 0.000000
26.309911 65.630953 355.692573 -10.409040 -0.054861 -36.954911 0.237531 0.922682 36.695769 0.573302 0.119794 -0.304608 26.839381 -57.409423 114.302209 0.000000 0.000000 0.000000 -27.958750 11.615237 17.574834 82.892038 -26.328820 11.186964 -4.217093 -22.852983 21.358101 12.344805 12.316782 -14.304489 0.000000 0.000000 0.000000 0.000000 0.000000 0.000000 14.870668 4.076534 1.529257 -6.636015 6.348180 1.654980 116.291512 -27.573032 96.580063 -0.695005 71.608763 -129.508316 0.000000 0.000000 0.000000 0.000000 0.000000 0.000000 -31.985254 21.286306 45.843851 5.837038 -30.916684 -3.670536 -1.188436 8.130991 15.505482 0.000000 0.000000 0.000000 27.517101 33.757165 42.379880 -33.765333 -14.325668 -13.643442 18.508155 -46.588734 -44.127099 0.000000 0.000000 0.000000
27.860207 65.646749 357.729964 -11.211971 -0.006653 -35.633032 0.176219 0.943520 35.361857 0.671738 0.095802 -0.329470 28.473892 -55.523398 115.734318 0.000000 0.000000 0.000000 -25.890721 10.955720 16.685132 80.946797 -27.515758 10.334248 -7.829535 -20.881670 19.267572 17.300213 12.506196 -14.346822 0.000000 0.000000 0.000000 0.000000 0.000000 0.000000 14.311758 4.242351 1.655251 -5.053714 4.883119 1.430814 118.243158 -26.696468 92.555215 -15.864637 73.638817 -114.744481 0.000000 0.000000 0.000000 0.000000 0.000000 0.000000 -32.985651 23.692312 46.126906 5.340364 -32.576618 -4.431720 -4.100417 8.326048 17.429205 0.000000 0.000000 0.000000 28.222738 34.203738 40.078842 -34.752109 -14.074455 -13.611778 21.830213 -46.025682 -37.100336 0.000000 0.000000 0.000000
28.657611 65.662929 358.109926 -12.496573 1.307852 -35.203296 0.338175 0.932699 35.027159 0.714949 0.122032 -0.368146 31.433632 -53.595072 118.634994 0.000000 0.000000 0.000000 -23.177861 9.742397 15.520979 78.320012 -28.134990 9.578380 -11.120918 -20.400795 17.457491 23.692621 7.216044 -13.089826 0.000000 0.000000 0.000000 0.000000 0.000000 0.000000 15.534774 2.964816 1.961855 -5.133950 4.954778 1.456731 118.207318 -26.717188 92.544956 -15.615331 73.629380 -114.954734 0.000000 0.000000 0.000000 0.000000 0.000000 0.000000 -30.789227 23.729557 45.578603 4.995843 -32.146567 -4.634618 -6.220459 7.929652 18.195701 0.000000 0.000000 0.000000 30.171101 32.677097 40.188935 -34.382451 -12.218474 -13.588393 23.197068 -44.882768 -32.615721 0.000000 0.000000 0.000000
30.059548 65.618513 359.267501 -13.339571 2.102016 -35.007313 0.897873 0.901806 34.888000 0.725019 0.275485 -0.370598 32.279588 -49.387385 119.750963 0.000000 0.000000 0.000000 -22.670920 9.478991 15.417120 76.841169 -29.034121 9.304802 -13.356497 -18.239899 15.639157 29.460398 3.565476 -11.532828 0.000000 0.000000 0.000000 0.000000 0.000000 0.000000 15.907560 2.381721 2.113365 -5.128332 4.955467 1.450929 118.216339 -26.710560 92.541696 -15.954955 73.601954 -114.739443 0.000000 0.000000 0.000000 0.000000 0.000000 0.000000 -31.087300 24.085415 45.921455 5.865941 -32.860464 -4.423940 -9.261726 6.124359 18.056803 0.000000 0.000000 0.000000 30.755024 32.085917 39.935389 -34.774628 -11.107788 -13.475802 27.258924 -45.736567 -22.347192 0.000000 0.000000 0.000000
31.218799 65.638190 360.330185 -14.300936 2.873632 -35.418198 0.734296 0.960311 35.393044 0.738305 0.172874 -0.415861 34.634760 -51.029141 121.739049 0.000000 0.000000 0.000000 -21.892225 9.454254 15.688767 75.672838 -30.527301 9.427663 -14.030203 -16.588387 14.582189 34.785419 3.102775 -11.238922 0.000000 0.000000 0.000000 0.000000 0.000000 0.000000 18.529861 1.217130 2.350827 -6.440514 5.564589 1.656377 117.945120 -26.939852 92.631766 -16.223684 73.423752 -114.482622 0.000000 0.000000 0.000000 0.000000 0.000000 0.000000 -31.952861 24.223736 47.024846 7.261492 -33.246424 -3.948789 -9.880827 5.184855 18.231880 0.000000 0.000000 0.000000 30.443394 31.971398 39.894987 -33.980138 -10.982005 -12.866227 28.040863 -45.630188 -21.364325 0.000000 0.000000 0.000000
31.960629 65.869207 361.075087 -15.485074 3.940391 -37.078742 0.510122 0.975166 37.196152 0.809742 0.026301 -0.471658 37.010525 -53.663075 122.954219 0.000000 0.000000 0.000000 -22.094918 9.534711 16.524566 75.822018 -32.058104 10.031364 -13.554764 -16.649480 14.087093 37.043125 4.077239 -11.718984 0.000000 0.000000 0.000000 0.000000 0.000000 0.000000 19.402874 0.336454 2.711513 -6.116327 5.423910 1.602339 118.026551 -26.866849 92.612314 -16.405901 73.453984 -114.424800 0.000000 0.000000 0.000000 0.000000 0.000000 0.000000 -32.214001 23.571904 49.096034 8.013633 -32.797876 -3.745263 -8.321717 5.355749 19.079450 0.000000 0.000000 0.000000 28.946557 32.579025 40.778428 -31.713795 -12.204647 -11.601896 24.175776 -43.858365 -35.313359 0.000000 0.000000 0.000000
32.763712 66.414388 361.812819 -16.661138 4.882898 -40.221422 0.268786 0.951376 40.481047 0.879404 -0.118240 -0.529462 39.293311 -54.265764 124.317540 0.000000 0.000000 0.000000 -22.978107 9.611239 17.603124 77.196839 -33.730534 10.938318 -13.037874 -14.657962 13.560479 34.508996 3.393163 -10.262196 0.000000 0.000000 0.000000 0.000000 0.000000 0.000000 18.791631 -0.086881 3.008186 -4.557347 4.735413 1.360056 118.373405 -26.559581 92.496933 -15.730576 73.737738 -115.013247 0.000000 0.000000 0.000000 0.000000 0.000000 0.000000 -32.464915 21.888982 52.236133 8.807466 -31.635427 -3.397107 -7.526760 5.741438 20.339528 0.000000 0.000000 0.000000 26.662722 33.906973 43.341397 -29.554313 -12.917521 -10.376531 21.152334 -40.795542 -49.639357 0.000000 0.000000 0.000000
33.446840 67.185803 362.545503 -17.797382 5.701071 -42.156148 -0.007438 0.949921 42.567130 0.875198 -0.128761 -0.581426 41.851758 -55.176090 125.940041 0.000000 0.000000 0.000000 -23.080022 9.217891 18.129027 78.831228 -34.702041 11.829738 -14.945558 -11.291271 12.481876 34.056382 2.462855 -8.155591 0.000000 0.000000 0.000000 0.000000 0.000000 0.000000 16.925410 -0.190562 3.298167 -1.980612 3.524037 0.946318 118.941804 -26.100937 92.278541 -15.954334 73.949583 -115.082327 0.000000 0.000000 0.000000 0.000000 0.000000 0.000000 -33.178888 21.274304 54.776110 9.380418 -30.854757 -3.346153 -6.215488 6.394510 22.154376 0.000000 0.000000 0.000000 25.148934 34.849754 44.760051 -27.558057 -13.864040 -9.204941 19.130752 -38.432824 -63.508989 0.000000 0.000000 0.000000
33.967760 68.010093 363.198725 -18.907858 6.584061 -42.215406 -0.313598 0.965217 42.811505 0.802009 -0.018589 -0.627230 45.755918 -57.944656 128.995756 0.000000 0.000000 0.000000 -23.670899 8.669950 18.773957 81.357930 -35.767731 13.121842 -15.196257 -8.060769 12.069111 31.200025 0.600709 -6.186737 0.000000 0.000000 0.000000 0.000000 0.000000 0.000000 14.287072 -0.299236 3.591755 1.215674 1.979110 0.441183 121.069452 -26.471756 84.712475 -36.938838 70.985952 -93.311381 0.000000 0.000000 0.000000 0.000000 0.000000 0.000000 -33.677843 21.962053 56.000527 9.573838 -30.476609 -3.606474 -4.609932 7.233014 24.245816 0.000000 0.000000 0.000000 25.243081 34.832103 44.400749 -25.654205 -14.972454 -8.143293 17.497908 -37.926471 -72.773423 0.000000 0.000000 0.000000
34.388341 68.653952 363.811404 -20.056458 7.576487 -37.504162 -0.476168 1.022380 38.320925 0.807192 0.055606 -0.665617 50.233098 -61.060830 132.577698 0.000000 0.000000 0.000000 -23.733078 8.076117 19.143832 83.402316 -36.406612 14.323612 -16.748078 -4.661749 11.307763 31.135356 -2.297497 -3.728773 0.000000 0.000000 0.000000 0.000000 0.000000 0.000000 11.226484 -0.366549 3.815785 4.600420 0.307841 -0.088034 121.721534 -25.432035 86.597434 -27.450662 72.674109 -102.773650 0.000000 0.000000 0.000000 0.000000 0.000000 0.000000 -33.655445 26.292556 54.138831 8.606316 -31.603329 -4.884605 -2.577889 7.162853 25.948238 0.000000 0.000000 0.000000 29.313218 31.739842 39.643617 -24.501957 -14.427429 -7.779487 16.224063 -40.461757 -76.984646 0.000000 0.000000 0.000000
34.766792 69.402050 364.238306 -20.929314 8.435900 -37.572436 -0.640811 1.036142 38.587241 0.744149 0.175955 -0.693702 54.543235 -64.494933 135.704842 0.000000 0.000000 0.000000 -22.801954 7.258191 18.882221 83.754016 -36.647620 14.638884 -17.155812 -1.005796 10.868266 31.671947 -4.370867 -1.684075 0.000000 0.000000 0.000000 0.000000 0.000000 0.000000 8.120116 -0.347179 3.941941 7.740336 -1.276879 -0.586489 120.073121 -24.124908 95.388770 -5.177797 74.782367 -128.358045 0.000000 0.000000 0.000000 0.000000 0.000000 0.000000 -33.972064 25.738870 54.408319 9.190603 -30.447365 -4.875236 -0.173721 8.208792 28.064467 0.000000 0.000000 0.000000 29.846616 31.558441 39.698737 -23.667090 -15.238909 -7.258903 15.127600 -45.675382 -74.224841 0.000000 0.000000 0.000000
